<?xml version="1.0" encoding="utf-8"?>
<!-- Generator: Adobe Illustrator 25.1.0, SVG Export Plug-In . SVG Version: 6.00 Build 0)  -->
<svg version="1.1" id="Ebene_1" xmlns="http://www.w3.org/2000/svg" xmlns:xlink="http://www.w3.org/1999/xlink" x="0px" y="0px"
	 viewBox="0 0 1028.3 431.4" style="enable-background:new 0 0 1028.3 431.4;" xml:space="preserve">
<style type="text/css">
	.st0{opacity:0.1961;fill:none;stroke:#000000;stroke-width:0.8235;stroke-linecap:round;stroke-miterlimit:10;}
	.st1{fill:none;stroke:#000000;stroke-width:5;}
</style>
<g>
	<g>
		<g>
			<g>
				<path class="st0" d="M213.1,326.6c-43.3,2-147.8-46.5-166.6-91.5c-18.8-45,18.2-151.4,53.7-178.4
					c35.5-26.9,125.1-10.9,159.5,16.8c34.4,27.7,54.5,107.4,46.7,149.6C298.7,265.4,256.5,324.6,213.1,326.6"/>
				<path class="st0" d="M213.5,328.1c-43.7,1.9-147-48-166.2-93.1C28,189.9,62,84.8,98,57.3c36-27.5,130-15.2,165.2,12.6
					c35.2,27.8,54.5,110.9,46.2,154C301.1,266.9,257.2,326.3,213.5,328.1"/>
				<path class="st0" d="M211.2,330.4c-44.2,1.5-145.1-50.6-163.5-96C29.4,189,64.8,86.2,101.2,58.2c36.5-28,130.1-19.9,165.3,8
					c35.2,27.9,55.3,115.4,46.1,159.4C303.4,269.7,255.3,328.9,211.2,330.4"/>
				<path class="st0" d="M210.6,328.3c-44.6,2-146.1-45.4-164.9-91.1C27,191.6,61.7,83,98.2,54.5C134.8,26,229.3,37.8,265.2,66.3
					c35.8,28.5,57.1,115.5,48,159.1C304.1,269.1,255.1,326.3,210.6,328.3"/>
				<path class="st0" d="M207.9,326.1c-44.8,1.4-147-47.3-164.8-92.1c-17.9-44.8,20-148.5,57.6-176.6
					c37.6-28.1,132.6-20.1,167.8,7.9c35.1,28,53.2,116.7,43.1,160.2C301.5,269,252.7,324.7,207.9,326.1"/>
				<path class="st0" d="M208.3,327c-45.1,2-150.7-48.9-168.7-93.5C21.7,189,63,88,100.6,59.7c37.6-28.3,129.9-22.9,164.8,4
					c34.9,27,54.2,113.9,44.7,157.8C300.6,265.4,253.4,325,208.3,327"/>
				<path class="st0" d="M211.1,324.8c-44.3,2.1-150.8-43.4-169.2-88.1C23.6,192.1,63.7,85.4,100.9,56.9
					c37.1-28.6,129.3-19.4,163.8,8.5c34.5,27.9,52.2,115.6,43.2,158.8C299,267.4,255.5,322.7,211.1,324.8"/>
				<path class="st0" d="M212.6,323.5C167.3,325.9,58,282.6,39.2,238C20.5,193.4,62.6,84.2,100,55.8
					c37.4-28.4,128.5-16.1,163.7,11.8c35.2,28,55.9,113.2,47.4,155.8C302.6,266.1,257.9,321.1,212.6,323.5"/>
				<path class="st0" d="M213.5,320.7c-44.5,2-151.4-42-170.9-86.1C23,190.5,59.1,84.7,96.3,56.3C133.5,27.8,230,36,265.6,63.7
					c35.6,27.7,52.9,115.8,44.2,158.7C301.2,265.2,258,318.7,213.5,320.7"/>
				<path class="st0" d="M211.3,317.1c-43.8,2.1-148.2-40.7-167.8-84.7c-19.5-44,14-151.3,50.6-179.1c36.6-27.8,133.7-15.2,169,12.5
					c35.4,27.7,51.9,112.1,43.2,153.9C297.8,261.6,255.1,315,211.3,317.1"/>
				<path class="st0" d="M210.8,315c-44.1,2.5-147.4-37.2-167-80.7C24.2,190.8,57.3,82,93.3,54.1c36-27.9,130.5-15,166.3,12.6
					c35.8,27.6,56.8,111.5,48.7,152.9C300.1,260.9,254.8,312.5,210.8,315"/>
				<path class="st0" d="M207.9,312.2c-43.8,2.4-143.6-32.8-162.8-76.3C26,192.4,56.8,79.4,93,51.1c36.2-28.3,133.5-13.4,169.4,15.1
					c35.8,28.5,54.7,114.6,45.7,155.6C298.9,262.8,251.7,309.9,207.9,312.2"/>
				<path class="st0" d="M207.3,314.6c-43.7,2.2-146.4-35-165-78.8C23.8,192,59.4,80.8,95.8,52C132.3,23.1,226.1,34,260.9,62.5
					c34.8,28.5,52.7,118.3,43.7,160.3C295.7,264.8,251.1,312.4,207.3,314.6"/>
				<path class="st0" d="M206.8,314.4c-43.2,2.5-142.4-36.2-161.4-80.4C26.4,189.7,57,77.7,93.1,49c36.1-28.7,133.4-15.6,168.7,12.7
					c35.3,28.3,52.2,115,43,157.1C295.7,260.9,250,311.8,206.8,314.4"/>
				<path class="st0" d="M209.3,312c-43,2.5-143.7-35.1-162.5-79.1C27.9,189,61.1,76.9,96.4,48.2c35.3-28.6,127.5-15.5,162.1,12.8
					c34.7,28.3,54.2,114.9,46,156.8C296.3,259.6,252.2,309.5,209.3,312"/>
				<path class="st0" d="M205.8,309.4c-43.1,2.7-142.6-31.8-161.3-75.6C25.8,190,57.8,75.9,93.4,46.6
					C129,17.2,223.3,29.4,258.2,57.9c34.9,28.5,53.5,117.9,44.8,159.8C294.2,259.7,248.9,306.7,205.8,309.4"/>
				<path class="st0" d="M208.5,307.2c-43.6,2.6-146.6-31.3-166-75.2c-19.4-43.9,13-158.8,49.4-188.1C128.2,14.5,225,27,260.4,55.8
					c35.4,28.8,52.5,118.7,43.8,160.6C295.6,258.3,252.2,304.6,208.5,307.2"/>
				<path class="st0" d="M211.6,304.2c-43.8,2.3-147.2-29.5-167.2-73.1c-20-43.6,10.6-158.8,47.1-188.5
					C127.9,12.8,227,23.7,263,52.8c36,29.2,52.9,122.8,44.3,164.7C298.7,259.4,255.4,302,211.6,304.2"/>
				<path class="st0" d="M211.8,304.3c-44.4,2.9-150.1-29.6-170.2-73.1c-20.1-43.5,13-157.6,49.9-188
					c36.9-30.4,135.5-22.7,171.5,5.7c36,28.4,53.3,122.2,44.7,164.8C299.1,256.3,256.1,301.4,211.8,304.3"/>
				<path class="st0" d="M208.2,303.3c-44.5,3.2-148-27.3-167.9-70.4c-19.9-43.1,11.8-158,48.4-188.2c36.6-30.3,135-21.4,171.4,6.7
					c36.4,28.1,55.6,120.1,47,162.1C298.4,255.5,252.6,300,208.2,303.3"/>
				<path class="st0" d="M204.5,302.9c-43.7,3.3-142.4-24.8-162.3-68.4C22.3,190.9,48.9,71.9,84.9,41.4
					c36-30.5,136.8-18.6,173.4,10.3c36.5,28.9,54.8,121.3,45.8,163.2C295.2,256.7,248.1,299.6,204.5,302.9"/>
				<path class="st0" d="M202.3,305.6c-42.8,3.1-138-31-157.7-74.7C24.8,187.3,48,73.8,83.9,43.6c35.9-30.2,139.9-21.7,176.2,6.4
					c36.3,28.1,51.1,119.6,41.4,162.3C291.9,254.8,245.1,302.5,202.3,305.6"/>
				<path class="st0" d="M199.2,304.5c-43.1,3-137.5-33.6-156.3-76.8C24.2,184.4,50.4,74.7,86.7,44.8c36.3-29.9,138.2-24.3,174,3.2
					c35.8,27.5,51.1,119.1,40.9,161.9C291.3,252.7,242.3,301.5,199.2,304.5"/>
				<path class="st0" d="M201,306.4c-43,2.3-138.3-38.8-157.2-82.4c-19-43.6,7.9-149.9,43.5-179c35.6-29.2,134.2-23.6,170,4
					c35.7,27.5,53.8,118.4,44.4,161.3C292.2,253.1,243.9,304.1,201,306.4"/>
				<path class="st0" d="M204,309c-42.9,2.3-138.3-43.9-157.3-87.6c-19.1-43.6,8-145.2,42.9-174.3C124.4,18,220,20.1,255.7,46.8
					c35.7,26.7,56.8,117,48.1,160.7C295.2,251.2,246.9,306.7,204,309"/>
				<path class="st0" d="M202.6,310.3c-43.5,2.4-139.1-46.5-157.4-90.6C26.8,175.6,56.9,74.3,92.4,45.9
					c35.5-28.4,130-22.9,165.7,3.7c35.7,26.6,57.5,112.5,48.2,156C297,249,246.1,307.9,202.6,310.3"/>
				<path class="st0" d="M203,311.8c-43.8,2.7-140.9-45.6-159.6-90.5c-18.8-44.9,11.8-149.9,46.9-179c35.2-29.2,128.1-23,164,4.1
					c36,27.1,60.4,114.2,51.8,158.4C297.5,249,246.8,309,203,311.8"/>
				<path class="st0" d="M199.2,312.3c-44.1,2.2-136.5-48.8-154.7-93.5C26.2,174,54.2,72.9,89.5,43.6C124.9,14.3,220.2,16,256.8,43
					c36.6,27,61.8,117.8,52.2,162.7C299.4,250.6,243.3,310.1,199.2,312.3"/>
				<path class="st0" d="M198.5,313.6c-44.8,1.5-137.8-52-156.2-97.6C23.8,170.3,51.7,68.6,87.7,39.5
					c35.9-29.1,132.9-26.1,170.1,1.8C295,69.3,320.9,161.6,311,207C301.1,252.4,243.3,312.1,198.5,313.6"/>
				<path class="st0" d="M199.8,315.4c-44.8,1.4-136.2-54.2-155.4-100.5c-19.3-46.2,4.4-148,39.8-177c35.4-29,134.4-25.2,172.6,2.9
					C295,68.9,322.9,161,313.3,206.7C303.9,252.5,244.6,314,199.8,315.4"/>
				<path class="st0" d="M199.4,313.8c-44.9,1.4-135.5-57.3-155.2-103.1C24.4,165,44.9,67.9,80.9,39.3c36-28.6,140.2-27.2,179-0.1
					c38.8,27.2,63.8,117.4,53.7,163.2C303.5,248.2,244.3,312.4,199.4,313.8"/>
				<path class="st0" d="M199.4,315.4c-45.1,1.4-133.5-61.8-153.5-108.5c-20-46.7-2.3-143.8,33.7-171.6
					c36-27.8,142.7-22.5,182.3,4.7c39.5,27.2,65.4,112.7,55,158.6C306.3,244.5,244.5,314,199.4,315.4"/>
				<path class="st0" d="M197.2,315.6c-44.5,1.5-131.5-60.3-151-107.6c-19.4-47.3-2-148,34.3-176.2c36.4-28.3,145-21.2,183.8,6.7
					c38.8,27.9,59.9,114.5,48.7,160.7C301.9,245.4,241.7,314.2,197.2,315.6"/>
				<path class="st0" d="M194.9,318C150,319,62.8,252.4,44.1,204.5C25.4,156.6,45.7,58.3,82.9,30.5c37.2-27.7,146.3-20.3,184.7,7.6
					c38.4,27.9,58,113.2,45.9,159.9C301.4,244.7,239.8,316.9,194.9,318"/>
				<path class="st0" d="M195.2,315.4C150.5,316.7,62.3,249,43.1,201.8C23.8,154.6,42.5,59.9,79.6,32.1
					c37.1-27.9,147.5-24.5,186.1,2.5c38.6,27,57.5,112.9,45.7,159.7C299.7,241.1,239.9,314.2,195.2,315.4"/>
				<path class="st0" d="M196,317.4c-44.9,1.2-132.1-67.1-151.6-114.3C24.9,156,42.7,61.9,79,34.2c36.3-27.6,144.2-23.9,183.3,3.1
					c39.1,26.9,62.4,111.9,51.3,158.6C302.5,242.6,240.9,316.2,196,317.4"/>
				<path class="st0" d="M193.4,314.7c-45.6,0.8-131.3-64-150.3-111.4C24,155.8,42.2,58.1,79.1,29.9C116,1.6,224.8,5.6,264.4,33.7
					c39.6,28.1,64,118.1,52.2,164.9C304.7,245.5,238.9,313.9,193.4,314.7"/>
				<path class="st0" d="M192.7,311.2c-45.5,1-131.4-63.3-150.4-110.2c-19-46.9,0.2-143,36.6-171c36.4-28,142.4-24.7,181.9,2.8
					c39.4,27.5,66,116,54.7,162.4C304.1,241.6,238.2,310.2,192.7,311.2"/>
				<path class="st0" d="M194,311.6c-46,0.7-133.6-64.6-153.3-111.7C21,152.8,38.6,57.2,75.8,29.1c37.2-28.1,147.7-25.7,187.9,2
					c40.2,27.8,64.8,117.7,53.2,164.5C305.3,242.4,240,310.9,194,311.6"/>
				<path class="st0" d="M194.7,311.8c-45.6-0.2-133.1-67.8-153-115.4C21.8,148.8,38.8,53.1,75.4,26c36.5-27.1,145.5-20.7,185.5,7.9
					c40,28.6,65.6,117.6,54.6,163.9C304.4,244.1,240.3,312,194.7,311.8"/>
				<path class="st0" d="M197.9,309.4c-45.7-0.6-139-68.7-159-115.8C18.9,146.6,41.3,53.3,77.9,27c36.7-26.2,141.8-19.2,180.9,9.1
					c39.1,28.3,64.2,115.4,54,161C302.7,242.7,243.5,310,197.9,309.4"/>
				<path class="st0" d="M200.9,305.7c-46,0-145.1-66.6-165.3-112.6c-20.2-46,7-137.7,44.1-163.5c37-25.8,139.4-18.6,178,8.6
					c38.6,27.2,63.3,110.2,53.8,154.8C302.1,237.4,246.9,305.6,200.9,305.7"/>
				<path class="st0" d="M197.4,302c-46,0.1-140.7-65.2-160.4-110.7C17.3,145.9,42.3,55,79.3,29c37-26,140.7-20.5,179.6,6.4
					c38.9,26.9,64.2,110.6,53.9,155C302.6,234.9,243.4,301.9,197.4,302"/>
				<path class="st0" d="M197.3,304.5c-45.7,0-142.9-70.8-162.3-117.2C15.6,140.9,43.8,51.1,80.8,25.9C117.8,0.7,218.9,9.2,257,36.1
					C295,63,319.2,142.6,309.3,187.3C299.3,232,243,304.5,197.3,304.5"/>
				<path class="st0" d="M195.5,304.7c-46,0.8-143.1-69-162.2-116.2C14.1,141.3,43.6,47.4,80.5,21.8c37-25.6,136.2-14,174.4,12.9
					c38.2,26.9,64.5,103.7,54.5,148.7C299.6,228.4,241.5,303.8,195.5,304.7"/>
				<path class="st0" d="M198.7,301.5c-46.4,0.3-147.3-67.1-167.3-113.7C11.5,141.3,41.5,47.8,79,22.3c37.5-25.5,139-15,177.4,12.4
					c38.4,27.3,62.9,107.2,53.2,151.6C300,230.8,245.1,301.3,198.7,301.5"/>
				<path class="st0" d="M196.5,298.8C150.1,299.2,49.2,233.2,29.1,187C9,140.8,37.7,46.9,75.7,21.7c38-25.2,142.9-13,181.5,14.1
					c38.6,27.2,60.3,105,50.2,148.8C297.3,228.5,242.9,298.4,196.5,298.8"/>
				<path class="st0" d="M199.2,300.2c-46.1,0.7-149.7-67.8-169.8-114.6C9.4,138.8,40.9,43.9,79,19.4
					c38.1-24.5,141.1-7.9,178.9,19.2c37.8,27,57.9,99.5,48.1,143.1C296.3,225.2,245.3,299.5,199.2,300.2"/>
				<path class="st0" d="M196.5,298.2c-45.3,0-144.3-68.2-164.2-114.4C12.4,137.6,39.4,45.6,77,20.9C114.7-3.8,220.2,8.4,258.1,35.6
					c37.8,27.1,56.3,104.3,46,148C293.9,227.4,241.8,298.2,196.5,298.2"/>
				<path class="st0" d="M197.2,299.5c-44.7,0-144.2-66.6-164.7-113.4C12,139.4,36.5,44.2,74.2,18.9C112-6.4,221.2,6.4,259,34.2
					c37.8,27.8,52.1,107.4,41.8,151.6C290.5,230.1,241.9,299.4,197.2,299.5"/>
				<path class="st0" d="M198.3,299.4c-45.1-0.3-146.8-67.8-168-114.3c-21.1-46.5,3-139.7,41.1-164.7C109.5-4.7,220.7,7,259,34.8
					c38.2,27.8,51.9,108.1,41.8,152.2C290.6,231.1,243.3,299.7,198.3,299.4"/>
				<path class="st0" d="M201.4,297.7c-44.7-0.2-149.6-65.5-171.1-112C8.9,139.2,34,44.4,72.5,18.7C111.1-7,223.9,3.5,261.6,31.5
					c37.7,28,46.9,110.8,36.9,155.2C288.5,231.1,246.1,297.9,201.4,297.7"/>
				<path class="st0" d="M199.7,294.1c-45-0.2-151.3-61.1-172.2-106.6C6.6,142.1,35.1,47.6,74.3,21.3
					c39.3-26.4,151.6-19.8,188.8,8.1c37.2,27.9,44.9,115.4,34.4,159.5C286.9,233,244.7,294.3,199.7,294.1"/>
				<path class="st0" d="M201.4,291c-45.8-0.3-154.2-60.6-175.7-105C4.2,141.7,32.1,50.5,72.2,24.8c40.1-25.7,156.1-20.1,194.2,7.1
					c38.1,27.2,45,112.9,34.2,156C289.7,231.1,247.2,291.3,201.4,291"/>
				<path class="st0" d="M198.4,292.5C151.8,291.5,44.9,230,23.8,185.5C2.6,141,31.5,51.2,71.5,25.2c40-26,153.8-23.2,192.4,4.5
					c38.6,27.6,50,117.5,39.1,161.3C292.1,234.7,244.9,293.4,198.4,292.5"/>
				<path class="st0" d="M198.4,293.9c-46.8-1.1-154.8-66.7-176.1-111.4C1,137.9,30.2,51.3,70.5,26.1c40.3-25.3,155-22.2,193.7,4.9
					c38.8,27.2,49.9,114.3,38.9,158.1C292.2,232.9,245.2,295,198.4,293.9"/>
				<path class="st0" d="M199.3,293.5c-46-1.8-152.6-68.7-174-113c-21.4-44.3,5.8-128.3,45.8-153c40-24.6,155.7-22.3,194.1,5.1
					c38.4,27.3,47.1,115.5,36.2,159C290.4,235.1,245.3,295.4,199.3,293.5"/>
				<path class="st0" d="M200.1,291.8c-45.9-1.6-155.5-63.3-176.4-107.7C2.7,139.8,33.9,51.1,74.4,25.5
					C114.8-0.1,229,2.6,266.5,30.6c37.5,28,43.9,119.6,32.8,163.1C288.2,237.3,246,293.4,200.1,291.8"/>
				<path class="st0" d="M203.8,290.9c-46-1.5-154.8-62.6-176.9-106.5c-22-43.9,4.1-131.4,44.7-157c40.6-25.6,160.2-24.2,198.7,3.4
					c38.6,27.6,43.7,119.1,32.6,162.4C291.8,236.5,249.8,292.4,203.8,290.9"/>
				<path class="st0" d="M200.6,292.2c-46-2.1-154.4-65-175.9-108.8C3.2,139.6,30.9,54.7,71.5,29.3c40.6-25.4,158.6-25.9,196.8,1.9
					c38.2,27.8,43.8,121.6,32.5,165.1C289.6,239.8,246.7,294.4,200.6,292.2"/>
				<path class="st0" d="M199.6,295.4c-46.1-1.9-154.9-65-175.9-109.8c-21-44.8,9.3-133,49.7-159c40.4-26,154.8-25.2,192.6,3.1
					c37.8,28.4,45.1,122.9,34.1,167.2C289.1,241.2,245.7,297.3,199.6,295.4"/>
				<path class="st0" d="M201.2,298.7c-46.6-1.2-158.9-66.1-179.9-111.6C0.3,141.6,35.1,52,75.4,25.7c40.4-26.3,150.5-24.4,188,3.7
					C301,57.4,311,149.1,300.7,194C290.3,238.9,247.7,299.9,201.2,298.7"/>
				<path class="st0" d="M198,295.6c-46.6-0.1-155.5-60.4-176.2-104.8C1.1,146.4,33.1,56.6,73.6,29.4C114,2.1,226.7,0.5,264.7,27.5
					c37.9,27,47.6,119.5,36.5,164.1C290.1,236.3,244.6,295.8,198,295.6"/>
				<path class="st0" d="M196.7,299.1c-45.9,0.1-150.8-63.5-171.3-108.9c-20.6-45.4,8.2-136.9,48-163.5
					c39.7-26.6,152.5-23,190.4,4.2c37.9,27.1,48.1,113.8,36.9,158.5C289.5,234.1,242.6,298.9,196.7,299.1"/>
				<path class="st0" d="M196,302.8c-46.6,0-152.9-68-173.4-114.2C2.1,142.4,33.1,51.1,72.9,25.4C112.7-0.2,223,7.6,261.2,34.8
					c38.2,27.2,51.9,109.1,41,153.7C291.4,233.2,242.6,302.8,196,302.8"/>
				<path class="st0" d="M193.9,303c-46.4-0.3-148.4-71.6-168-117.6c-19.5-46,11.3-133,50.9-158.3c39.6-25.4,149-20.6,186.8,6.1
					c37.9,26.7,52.1,109.2,40.4,154.2C292.5,232.4,240.2,303.4,193.9,303"/>
				<path class="st0" d="M192.4,302.3C146.2,302,43,228.6,24.4,183.4C5.8,138.2,41.4,56,80.8,31.2c39.5-24.8,143.8-22.4,180.5,3.2
					C298.1,60,313,140.1,301.5,184.8C290,229.4,238.5,302.5,192.4,302.3"/>
				<path class="st0" d="M196.2,300.8C151,300.6,46.5,225.5,27.7,180.9C8.9,136.4,44.6,57.3,83.1,33.5
					C121.7,9.8,223,13.7,258.9,38.4c35.9,24.8,50.4,100,39.9,143.7C288.4,225.8,241.3,301,196.2,300.8"/>
				<path class="st0" d="M199.8,300c-45.1,0.2-154.4-72.6-173.8-117C6.5,138.6,44.5,57.2,83,33.6c38.5-23.6,138.3-16.9,173.9,7.8
					c35.6,24.7,49.4,97.5,39.9,140.6C287.2,225.1,244.9,299.8,199.8,300"/>
				<path class="st0" d="M198.8,299.1c-44.3-0.4-151.4-72.5-171.1-116.5C8.1,138.7,42.3,58.8,80.8,35.2
					c38.5-23.6,142.5-19.3,178,5.7c35.5,25,45,101.1,34.9,144.2C283.8,228.1,243.2,299.5,198.8,299.1"/>
				<path class="st0" d="M201.7,296.4c-43.5-0.1-150.8-67.5-170.3-110.6C11.9,142.7,46.5,62.3,84.7,37.7
					c38.2-24.6,141.2-24.2,175.8,0.5C295.1,63,302,143.1,292.2,186.1C282.4,229.2,245.2,296.5,201.7,296.4"/>
				<path class="st0" d="M201.3,294.1c-43.7,0-150.2-63.4-169-106.4c-18.8-43,18.4-126.6,56.1-151.5c37.7-24.8,135.6-22.8,169.9,2.5
					c34.3,25.3,45.5,106.6,36,149.1C284.9,230.5,245,294.2,201.3,294.1"/>
				<path class="st0" d="M199.9,293.1c-43.2,0.7-147.6-58.4-165.6-101.6C16.3,148.3,55,59.4,91.9,33.7
					C128.7,8,221.8,11.5,255.4,37.1c33.6,25.6,47.5,107.4,38.2,150C284.4,229.8,243.2,292.4,199.9,293.1"/>
				<path class="st0" d="M203,292.1c-43.1,1.8-147.9-53.6-166.8-96.4C17.3,152.9,52.7,61.7,89.4,35.4C126,9.1,221.8,13.1,256.1,38.1
					c34.3,25,47.7,104.7,38.8,147.1C286.1,227.5,246.2,290.4,203,292.1"/>
				<path class="st0" d="M200.7,293.6c-42.8,1.7-144.6-54.8-162.7-97.4C20,153.6,55.8,64,92.5,38c36.8-25.9,132.4-22.1,166.1,2.5
					c33.7,24.6,45.7,103.2,36,145.3C285,228.1,243.5,291.9,200.7,293.6"/>
				<path class="st0" d="M201.8,295.5c-43.3,1.8-148.1-53.1-166-95.9c-18-42.9,21-135,58.3-161.2c37.3-26.2,131.7-21.4,165.3,3.7
					C293,67.2,305.3,146.7,295.7,189C286.1,231.2,245.1,293.7,201.8,295.5"/>
				<path class="st0" d="M200.1,297.5c-43.4,1.9-148.3-56.6-165.5-99.8C17.4,154.4,59.3,63.6,96.9,37.9
					c37.6-25.7,130.3-19.2,163.4,5.6c33,24.7,44.9,100.5,34.9,142.9C285.1,228.6,243.5,295.6,200.1,297.5"/>
				<path class="st0" d="M204,300.7c-44.3,2-154.5-57.8-171.8-100.9C14.8,156.7,61.1,67.9,99.8,42c38.7-25.9,131.4-22.1,164.4,2.2
					c33,24.3,43.8,101,33.8,143.7C287.9,230.6,248.3,298.7,204,300.7"/>
				<path class="st0" d="M203.8,299.7c-44.4,2.9-156.5-53.4-173.5-95.8c-17-42.5,32.8-132.5,71.6-159c38.8-26.5,128.7-23.6,161.2,0
					c32.5,23.6,43.7,99.1,33.8,141.6C287,228.8,248.2,296.7,203.8,299.7"/>
				<path class="st0" d="M203.2,303.5c-44.7,2.2-157.2-58.7-173.6-102C13.2,158.3,66.4,69.6,105,43.9
					c38.5-25.7,123.8-20.6,155.9,3.5c32.2,24,46.6,98.1,37,140.8C288.3,230.9,247.9,301.3,203.2,303.5"/>
				<path class="st0" d="M200.6,307.1c-45,1.5-156.2-62.8-172.5-107.1C11.9,155.6,64.2,67,103.2,41.2c39-25.8,126.6-20.9,159.1,4
					c32.5,24.9,46,102,35.8,145.6C287.8,234.4,245.6,305.6,200.6,307.1"/>
				<path class="st0" d="M204.3,305.1c-44.7,1.6-156.9-56.8-173.1-101C15,159.9,68.6,65.6,107.1,39.8
					c38.5-25.8,123.2-16.4,155.2,9.4c32,25.8,46.5,102.7,36.8,145.4C289.5,237.2,249,303.5,204.3,305.1"/>
				<path class="st0" d="M204.3,307.6C159.7,309.5,47.5,250.3,31.2,206C14.9,161.7,68.1,68.1,106.5,41.8
					C145,15.5,229.7,22.6,261.8,48c32.1,25.4,46.7,103.1,37.2,146.3C289.3,237.7,249,305.7,204.3,307.6"/>
				<path class="st0" d="M207.5,305.7c-44.4,2.7-158.1-53.7-174.6-97C16.4,165.4,69.9,73,108.4,45.8c38.5-27.2,123.5-24.8,155.4-0.3
					C295.6,69.9,309,149,299.6,192.4C290.2,235.7,252,303,207.5,305.7"/>
				<path class="st0" d="M209.9,308.3c-45.2,2.2-161.8-56.4-178.2-100C15.3,164.6,73.5,73.5,111.8,46.5
					c38.3-27,117.9-25.1,149.8-0.3c31.9,24.8,50,105.4,41.4,149.1C294.4,239,255.1,306.1,209.9,308.3"/>
				<path class="st0" d="M212.6,309.4c-45.4,2.9-161.5-56.1-178.1-99.3C17.9,166.8,74.3,77,112.9,49.7
					c38.5-27.3,120.4-27.3,152.7-3.5c32.3,23.8,50,102.6,41.1,146.5C297.9,236.5,257.9,306.5,212.6,309.4"/>
				<path class="st0" d="M211.3,306.9c-45.4,2.3-162.9-54.6-179.7-96.9C14.8,167.6,71.8,80,110.4,52.8c38.6-27.2,120.4-30,152.7-6.2
					c32.3,23.8,49.8,105.9,41.1,149.3C295.6,239.2,256.8,304.5,211.3,306.9"/>
				<path class="st0" d="M214.8,310c-45.1,3.5-167.4-52.3-184.2-95.6C13.8,171.2,75.3,78.9,114.1,50.6C153,22.3,232.6,21,263.8,44.9
					c31.2,23.8,45.6,104.4,37.4,148.6C293.1,237.7,259.9,306.5,214.8,310"/>
				<path class="st0" d="M217.2,308.5c-45.6,3.3-169-49-185.7-91.4c-16.7-42.5,46.3-135,85.6-163.5c39.3-28.5,118.8-31.4,150.1-7.5
					C298.5,70,313.4,153.3,305.1,197C296.7,240.7,262.8,305.2,217.2,308.5"/>
				<path class="st0" d="M220.4,307.7c-45.4,3.9-170.9-45-188-87.4c-17.1-42.4,46.6-139,85.6-167.2c39.1-28.3,117.6-26.5,148.7-2.4
					c31.1,24,45.5,103.7,37.8,146.5C296.8,240,265.8,303.9,220.4,307.7"/>
				<path class="st0" d="M219.9,307.8c-45.5,3-171.9-47.7-189-89.8C13.8,175.9,77.7,82.9,117.3,55s120-28.3,151-4.1
					c31,24.2,43.4,106.2,35.3,149.1C295.5,242.8,265.4,304.8,219.9,307.8"/>
				<path class="st0" d="M218.4,310.8c-45.7,2.4-168.9-50.5-185.2-92.4C16.8,176.5,81.6,87.2,120.3,59.2c38.7-28,113.9-33,145.1-8.9
					c31.2,24.1,49.8,110.1,42,153.6C299.5,247.3,264.1,308.3,218.4,310.8"/>
				<path class="st0" d="M217.6,315.2c-46.8,2.3-171.1-56.5-187.1-98.6c-16-42.1,52.3-126.1,91.1-153.8
					c38.8-27.7,110-35.6,141.6-12.2C294.8,74,318.8,159,311.2,203.1C303.6,247.2,264.4,313,217.6,315.2"/>
				<path class="st0" d="M217.8,319.5c-47.8,1.6-173.7-59.7-189.5-102C12.4,175.2,83.7,92.9,122.7,65.9c39-27,107.4-34.3,139.5-10.7
					c32.1,23.6,60.5,108.5,53.1,152.5C307.9,251.8,265.6,317.8,217.8,319.5"/>
				<path class="st0" d="M218.1,320.5C170,322.1,42.7,261.9,26.8,219.4C10.9,177,83,93.5,122.5,66C162,38.4,231.8,30.2,263.9,54.2
					c32.1,24,59,111.3,51.4,155.7C307.6,254.3,266.1,318.9,218.1,320.5"/>
				<path class="st0" d="M216.8,321.8c-48.1,1.1-176.6-62-191.7-104.5C9.9,174.7,85.5,94.1,125.8,66.7
					C166,39.2,235.4,28.5,266.7,52.5c31.3,24,55.2,113.2,46.9,158.1C305.2,255.5,264.9,320.7,216.8,321.8"/>
				<path class="st0" d="M217.7,321.1c-48.3,1.4-179.3-57.5-195.1-99.5C6.9,179.7,82.2,97.5,123.1,69.1
					c40.9-28.4,113.3-41.8,144.8-17.7c31.5,24,52.8,116.8,44.4,161.7C303.9,258,266,319.7,217.7,321.1"/>
				<path class="st0" d="M221.4,320.6c-48.5,1.8-181.8-55-198-96.2C7.2,183.1,83.6,102.1,124.3,73.4C165,44.7,235.9,28.7,267.5,52
					c31.6,23.4,54.3,116.9,46.6,161.6C306.4,258.4,269.8,318.8,221.4,320.6"/>
				<path class="st0" d="M224.2,323C176,324.5,41,265.3,24,223.9C7,182.5,81.5,102.8,122.1,74.7c40.6-28.1,113.7-42.7,145.5-19.3
					c31.8,23.4,52.6,115,45.3,159.6C305.7,259.7,272.3,321.5,224.2,323"/>
				<path class="st0" d="M221.1,324.8C173.7,326.1,43.6,263.6,27.4,222s55.7-120.1,96.2-147.2c40.5-27,115.1-38.3,146.5-15.1
					c31.4,23.2,50.2,110.3,42,154.5C304,258.4,268.6,323.5,221.1,324.8"/>
				<path class="st0" d="M222.3,323.3c-47.7,1-180.2-60.1-196.9-101.2C8.5,181.1,80.2,103.8,121.6,76.9
					C163,50,242.2,37.6,273.9,60.7c31.7,23.2,46.4,111.5,37.7,155.3C303,259.8,270,322.3,222.3,323.3"/>
				<path class="st0" d="M222.2,326.3c-47.5,1.2-178-59.1-195.2-100.1s50.6-118.7,92-146c41.4-27.3,124.4-40.7,156.6-17.6
					c32.1,23.2,45.2,112.6,36.3,156.5C303,263.1,269.7,325.1,222.2,326.3"/>
				<path class="st0" d="M223.1,326.5c-46.9,1.6-174.6-59.1-192-99.9c-17.4-40.9,47.1-118.4,87.4-145.3
					c40.3-27,122.2-39.1,154.5-16.4c32.4,22.6,47.9,108.7,39.6,152.3C304.3,260.8,270,324.9,223.1,326.5"/>
				<path class="st0" d="M223.2,324.4c-46.4,1.3-172.1-59.1-190-99c-17.9-39.9,42.6-113.6,82.5-140.6c39.9-27,124.3-43.4,157-21.3
					c32.7,22.1,47.2,110.5,39,153.9C303.4,260.9,269.6,323,223.2,324.4"/>
				<path class="st0" d="M223.3,324.8c-46.5,2-171.9-57.3-189.5-97.3c-17.6-40,43.4-115.2,83.9-143c40.5-27.7,126.4-45.3,159-23.5
					c32.6,21.8,45.3,110.4,36.4,154.4C304.1,259.4,269.8,322.8,223.3,324.8"/>
				<path class="st0" d="M226.5,328.3c-46.7,2-172.8-57.8-191-98.8c-18.2-41,41.7-118.7,81.9-147.1C157.5,54,243.6,36.7,276.7,59.2
					c33.1,22.5,47.4,113.3,39,158.2C307.4,262.3,273.2,326.3,226.5,328.3"/>
				<path class="st0" d="M230.5,325.9c-46.2,2.8-172.9-51.2-191.8-91.7c-19-40.5,38.9-121.8,78.1-151.2
					c39.3-29.4,124.4-47.6,157.6-25.2c33.2,22.4,48.7,115.1,41.4,159.8C308.5,262.2,276.7,323.1,230.5,325.9"/>
				<path class="st0" d="M228.7,330c-46.5,2.1-172.8-56.1-191.4-97.6C18.6,190.8,77.1,110,116.8,80.6
					C156.4,51.2,241.9,32.9,275.2,56c33.3,23.1,49,117.8,41.2,163.5C308.7,265.2,275.2,327.8,228.7,330"/>
				<path class="st0" d="M229.3,328.3c-47.4,3-174.7-51.3-193.8-92.2c-19.2-40.9,39.1-123.2,78.9-152.9c39.8-29.7,125.8-48,160-25.5
					c34.2,22.5,52.9,115.4,45.3,160.5C312.3,263.2,276.7,325.3,229.3,328.3"/>
				<path class="st0" d="M232.3,327.5c-47.2,3.1-173.3-46.3-193.1-86.8c-19.8-40.5,35.2-125.9,74.5-156
					C153.1,54.6,240.5,37,275.4,59.9c34.8,23,54.5,117.9,47.3,162.5C315.5,267,279.6,324.4,232.3,327.5"/>
				<path class="st0" d="M234.3,326.8c-47.6,2.6-175.4-46.9-195.6-87C18.6,199.7,74,116.5,113.4,86.4
					c39.4-30.1,126.4-50.2,161.5-27.2c35.1,23,56.2,120.6,49.4,165.2C317.5,268.9,281.9,324.2,234.3,326.8"/>
				<path class="st0" d="M232.3,329.8c-47.1,3-171.4-47.5-191.3-88.2c-20-40.8,33-125.9,71.5-156.4c38.5-30.5,124.3-49.4,159.4-26.3
					c35.2,23.1,58.1,119.8,51.5,165C316.8,269,279.4,326.9,232.3,329.8"/>
				<path class="st0" d="M236.3,328.8c-46.7,3.7-172.8-45-193.7-85.5c-20.9-40.5,30.3-127.2,68.4-157.4
					c38.1-30.2,125.1-46.2,160.3-23.7c35.3,22.6,57,114.7,51.2,159.1C316.7,265.7,283,325.1,236.3,328.8"/>
				<path class="st0" d="M238.3,327.6c-47.1,3.7-175.4-46.4-197.1-86.3c-21.7-39.9,28.3-123.5,67.1-153.1
					C147.1,58.6,238,41.7,273.9,63.5c35.9,21.9,55.7,111.8,49.8,155.8C317.8,263.4,285.4,324,238.3,327.6"/>
				<path class="st0" d="M239.8,325.8C192.1,329.2,60,280.9,38.7,241c-21.3-40,34.4-126.2,73.4-155c39-28.8,125.2-40.3,160.6-17.9
					c35.5,22.4,57.8,109.3,52.3,152.3C319.6,263.3,287.5,322.3,239.8,325.8"/>
				<path class="st0" d="M243.2,324.8c-47.9,3.1-184.6-42.9-206.6-83c-21.9-40,35.8-128.8,75-157.3C150.9,56.1,236.6,47.8,272,71
					c35.4,23.1,57.1,110,52.3,152.3C319.5,265.6,291.2,321.7,243.2,324.8"/>
				<path class="st0" d="M240.9,328.9c-48.2,3.7-185.2-41.6-206.6-82.7c-21.4-41.1,38.1-134.7,78.2-164
					c40.1-29.2,127.2-35,162.4-11.4c35.2,23.6,54.4,110,48.7,153C317.9,266.9,289.1,325.1,240.9,328.9"/>
				<path class="st0" d="M243.9,329.3c-48,4-185.6-39.1-207.9-80.3c-22.2-41.2,35.1-136.9,74.6-166.9c39.5-30,126.6-36.8,162.2-13
					c35.5,23.8,55.9,112.4,51.1,155.7C319,268.2,291.9,325.3,243.9,329.3"/>
				<path class="st0" d="M244.9,333.3c-47.3,4-183.7-40.3-205.5-81.5c-21.8-41.2,35.4-135,74.7-165.8
					c39.3-30.8,126.4-42.7,161.3-19.1c34.8,23.6,52.9,116.4,47.8,160.8C318.1,272,292.2,329.3,244.9,333.3"/>
				<path class="st0" d="M242,332.2c-46.4,4.3-177.8-39.9-199.5-81.2c-21.7-41.3,29.7-136.1,69.1-166.7c39.3-30.6,132.1-40.5,167-17
					c34.9,23.5,48.5,113.9,42.4,158C315,269.4,288.5,327.9,242,332.2"/>
				<path class="st0" d="M240.7,333.9c-47,3.3-177.4-43.6-199.1-84.8C19.9,207.8,71,116.7,110.4,86.7c39.4-30,132-41.6,167.6-17.9
					c35.6,23.7,52,116.2,45.8,160.3C317.6,273.3,287.7,330.6,240.7,333.9"/>
				<path class="st0" d="M241.8,334.4c-47,2.8-176.8-44.9-198.3-86.4c-21.5-41.5,30.4-132.6,69.4-162.8
					c39-30.2,128.9-42.7,164.4-18.4c35.5,24.3,54.3,119.5,48.4,164.1C319.7,275.6,288.8,331.6,241.8,334.4"/>
				<path class="st0" d="M243.6,333.3c-47.9,3.4-181-42.8-202.3-83.4c-21.2-40.6,35.9-130.1,74.8-160.2
					C155.1,59.7,239.6,46.2,275,69.5c35.4,23.3,58.8,116.2,53.5,160.2C323.3,273.7,291.5,329.9,243.6,333.3"/>
				<path class="st0" d="M243,334.2c-47.4,2.7-177.2-44.3-198.2-84.9c-21-40.6,34.2-128.6,72.4-158.8c38.2-30.2,121.3-46,156.6-22.3
					C309.2,92,334.6,188.6,329.5,233C324.4,277.3,290.5,331.4,243,334.2"/>
				<path class="st0" d="M240.1,336.4c-47.7,2.1-176.7-46.7-197-87.2c-20.3-40.5,36.7-125.9,75.3-155.8
					c38.6-29.9,121.1-47.6,156.3-23.7c35.2,23.9,60.6,122.7,54.9,167.2C323.9,281.3,287.9,334.4,240.1,336.4"/>
				<path class="st0" d="M243.4,341c-48.6,2.8-181.7-46.7-202.9-87.9c-21.2-41.2,36.9-129.4,75.7-159.2
					C155,64,237.3,50.4,273.3,74.2c35.9,23.8,63.5,117.8,58.5,162.2C326.9,280.9,291.9,338.2,243.4,341"/>
				<path class="st0" d="M242.8,339c-48.1,2.2-180.7-47.4-201.8-87.9C20,210.6,77.9,125.9,116.3,96.1
					c38.5-29.9,119.9-47.9,155.5-24.2c35.6,23.7,62.8,121.8,58,166.3C325,282.7,290.9,336.9,242.8,339"/>
				<path class="st0" d="M241.1,337.6c-47.4,2-178-45.2-199.1-85.8c-21.1-40.5,33.8-127.5,72.4-157.5c38.6-30,123.9-46.8,159.3-22.6
					c35.4,24.3,58.4,123.9,53,168.2C321.3,284.3,288.6,335.6,241.1,337.6"/>
				<path class="st0" d="M240.5,341.4c-47.9,1.3-176-51.3-197.5-92c-21.4-40.7,30.8-122.6,69-152.3c38.3-29.7,124.2-50.1,160.6-26
					c36.4,24.1,63.3,125.5,57.9,170.5C325.3,286.7,288.4,340.1,240.5,341.4"/>
				<path class="st0" d="M237.7,344c-48.3,0.3-176.5-56.2-197.3-96.9c-20.7-40.7,34-117.5,73-147.1c39-29.6,124.7-54.9,160.8-30.7
					c36.2,24.2,62.2,130,56.1,175.7C324.2,290.8,286,343.6,237.7,344"/>
				<path class="st0" d="M238.4,347.8c-47.3,0.6-173.9-59.2-194.3-99.9c-20.5-40.6,33-113.9,71.4-143.8
					c38.4-30,123.4-59.2,158.8-35.8c35.4,23.4,59.6,129.6,53.6,176.2C321.9,291.1,285.7,347.3,238.4,347.8"/>
				<path class="st0" d="M236.3,349.2c-47.1,0-172.9-60.6-192.9-101.7c-20-41.1,34.5-115.3,73-145c38.5-29.7,122.9-57.3,157.8-33.2
					c34.9,24.2,58.2,131.5,51.8,178.2C319.8,294.1,283.4,349.2,236.3,349.2"/>
				<path class="st0" d="M233.8,353.8c-47.6-1-171.9-65.8-191.8-108C22.1,203.6,75.6,130,114.4,100.6
					c38.8-29.4,124.9-56.5,160.4-31.3c35.6,25.2,59.7,135.1,52.8,182.5C320.9,299.3,281.4,354.8,233.8,353.8"/>
				<path class="st0" d="M236.8,357.5c-48.6-0.8-177.3-67.2-198.1-109.7C18,205.3,72.9,132.2,112.2,102.5
					c39.4-29.7,126.4-58,162.7-33c36.4,25,61.8,135,55.4,183C324,300.4,285.4,358.3,236.8,357.5"/>
				<path class="st0" d="M239.9,358.7C191.2,357.6,58,289.9,37,246.8c-21-43.1,36.9-117.1,76.8-146.4c40-29.3,127-55.1,162.9-29.6
					c36,25.5,59.1,134.8,52.9,182.8C323.6,301.6,288.7,359.9,239.9,358.7"/>
				<path class="st0" d="M243.8,358.3c-49.3-0.5-188.5-65.7-209.6-108.7c-21-42.9,42.9-119.7,83.3-149
					C158,71.4,241.4,48.7,276.8,74.1c35.4,25.4,58.7,131.4,53.2,178.8C324.5,300.2,293.1,358.8,243.8,358.3"/>
				<path class="st0" d="M241.9,362.1c-48.9-1.1-187.4-69.7-208.5-113c-21.1-43.3,41-118,81.8-146.7
					c40.8-28.8,127.5-51.4,162.8-25.9c35.3,25.6,55,131.7,49,179.3C320.9,303.4,290.8,363.2,241.9,362.1"/>
				<path class="st0" d="M239.3,360.9C190.6,359.4,52.3,291.1,32,248c-20.3-43.1,44.7-117.4,85.5-145.9
					c40.8-28.4,124.6-50.6,159.1-24.8c34.4,25.9,53.8,132.7,47.6,179.9C318,304.5,287.9,362.4,239.3,360.9"/>
				<path class="st0" d="M241.9,359.3c-48.2-1.5-189.2-70.8-210.3-113.2C10.4,203.7,74.1,132.9,115.2,105
					c41.1-27.9,128.8-51.1,163.1-26.1c34.3,25,48.7,129.4,42.6,176.2C314.9,301.8,290.1,360.7,241.9,359.3"/>
				<path class="st0" d="M240.7,360.1c-48.1-1.1-191-69.3-211.3-111.4c-20.3-42.1,47.5-112.4,89.3-141.1
					c41.8-28.7,128.4-55.7,161.6-31.2c33.2,24.6,44.1,131.4,37.5,178.6C311.2,302.4,288.8,361.2,240.7,360.1"/>
				<path class="st0" d="M237.7,364.5c-48.1-1.3-190.4-73-210.5-116.2c-20.1-43.2,47.3-114.5,89.7-142.9
					C159.3,77,248.6,52.7,281.7,77.8c33.1,25.1,41.4,130.5,34,178.3C308.4,303.9,285.8,365.8,237.7,364.5"/>
				<path class="st0" d="M239.2,362.3C190.4,361,46.3,295.3,26,252.7c-20.3-42.6,48.8-117.4,91.4-146.2
					c42.5-28.8,130.2-52.4,163.7-26.7c33.5,25.6,44.4,133.5,37.5,180.6C311.6,307.4,287.9,363.6,239.2,362.3"/>
				<path class="st0" d="M236.1,360.9c-48.4-0.4-186.6-62-206.6-103.9c-20.1-41.9,44.5-117.9,86.2-147.5
					c41.7-29.7,130-55.4,164.1-30.4c34.1,25,47.6,133.5,40.3,180.4C312.8,306.6,284.5,361.4,236.1,360.9"/>
				<path class="st0" d="M237.5,358.9c-48.9-1.4-190.3-61.5-210.6-103.1c-20.3-41.5,46.4-116.6,88.9-146.1
					c42.5-29.5,132-56.6,166-30.9c34.1,25.7,45.9,138.6,38.5,185.2C312.9,310.7,286.4,360.3,237.5,358.9"/>
				<path class="st0" d="M240.9,362.8C192.4,362,48.4,301.4,27.9,260c-20.6-41.4,47.4-115.9,89.6-145.9c42.1-30,129.7-59,163.2-33.9
					c33.6,25.1,44.9,137.3,38.3,184.4C312.4,311.7,289.5,363.5,240.9,362.8"/>
				<path class="st0" d="M238,360.3c-48.7-0.5-191.2-56-211.8-97c-20.6-41,45.7-119.1,88.2-149.1c42.5-30,132.8-56.4,166.9-31
					c34,25.3,44.6,137,37.4,183.1C311.3,312.5,286.7,360.8,238,360.3"/>
				<path class="st0" d="M237.7,359c-49.1-1-189.5-56.4-209.8-97.3c-20.3-40.9,45.4-118.5,87.8-147.9
					C158.1,84.3,247.6,59.4,282,85.1c34.4,25.7,47.8,137.2,40.4,182.9C315,313.6,286.8,360.1,237.7,359"/>
				<path class="st0" d="M237.5,360.5c-49.1-1.5-188.2-58.1-208.1-99.4c-19.9-41.3,47-119.4,88.8-148.6
					C160,83.3,245.8,59.4,280.1,85.7c34.3,26.3,51.3,138.7,44.2,184.5C317.2,316,286.6,362,237.5,360.5"/>
				<path class="st0" d="M236.1,363.1c-49.4-2.5-189.8-62.3-209.4-103.3c-19.7-41.1,49-113.6,91.5-143
					C160.6,87.3,247.3,57,281.5,83.3c34.2,26.3,49.1,144.7,41.6,191.4C315.5,321.3,285.5,365.6,236.1,363.1"/>
				<path class="st0" d="M236,365.8c-49.8-1.7-189.4-60-209.5-101.9c-20.1-41.9,46.4-119.7,89-149.5c42.6-29.8,131.5-56,166.5-29.3
					c35,26.7,51.1,142.5,43.4,189.2C317.6,321.1,285.8,367.6,236,365.8"/>
				<path class="st0" d="M237.4,364.1c-49.5-1.7-189.7-56.5-210.5-97.8C6.1,224.9,70.1,146,112.7,116C155.2,86,246.8,59.6,282,86.3
					c35.2,26.7,49.4,143.6,42,189.9C316.5,322.5,286.9,365.7,237.4,364.1"/>
				<path class="st0" d="M239.3,366.2c-48.8-2.1-190.5-59.9-211-101.8c-20.5-41.9,45.2-120,88.1-149.6
					C159.2,85.3,251.2,60,285.2,87.1c34.1,27,43.4,143.3,35.7,189.8C313.3,323.4,288,368.3,239.3,366.2"/>
				<path class="st0" d="M242,365.8c-49.2-2.5-193.6-61.7-214.7-103.3C6,221,71.7,145.5,114.8,116.3
					c43.1-29.2,136.4-55.7,170.9-28.8c34.6,26.9,43.8,143.7,36.5,190.1C315,323.9,291.2,368.3,242,365.8"/>
				<path class="st0" d="M245.8,368.4C196.1,365.1,47.2,301.8,26,260.2C4.8,218.5,75.6,147,118.5,118.5c43-28.4,131-56,165.3-29
					c34.3,27,46.8,144.5,40.4,191C317.9,327,295.5,371.8,245.8,368.4"/>
				<path class="st0" d="M246.6,368.2c-49.2-2.6-195.9-62.7-217-104.6c-21.2-41.9,47.2-118.2,90-146.9
					C162.4,87.9,252.3,64,286.5,91.1c34.2,27.1,44.9,141.9,38.2,188.1C318,325.3,295.8,370.8,246.6,368.2"/>
				<path class="st0" d="M247.2,365.9C197.6,363.4,48.8,305,27.8,264.2c-21-40.8,50.5-114.8,93.4-143.1
					c43-28.3,130.3-53.1,164.3-26.7c34,26.4,46,139.7,39.7,185C318.8,324.6,296.7,368.4,247.2,365.9"/>
				<path class="st0" d="M248.3,364.7c-48.5-2-195.8-58.6-217.2-98.5c-21.5-39.8,46-112.4,88.3-140.6c42.3-28.2,132-54.2,165.7-28.8
					c33.8,25.4,43.1,136.6,37,181.3C315.9,322.8,296.8,366.7,248.3,364.7"/>
				<path class="st0" d="M245.9,368.3C197.6,366,55.6,305.6,34,265.3c-21.6-40.3,40.7-110.4,82.5-138.5
					c41.8-28.1,133.7-55.6,168.2-30.1c34.5,25.4,45.5,137.5,39.1,182.8C317.4,324.8,294.2,370.7,245.9,368.3"/>
				<path class="st0" d="M249.1,367.9c-48.6-3.2-192.2-64-214.3-103.5c-22.1-39.5,39.9-105.9,81.6-133.7
					c41.7-27.8,133.4-58.6,168.4-33.1c35,25.5,47.4,140.7,41.5,185.8C320.3,328.4,297.6,371.1,249.1,367.9"/>
				<path class="st0" d="M248,368c-49.1-3.7-192.5-65.9-214.8-105.5C10.9,223,71.5,157.5,114,130.5c42.4-27,138.3-55.4,173.9-29.7
					c35.6,25.8,46.5,139.6,39.9,184.1C321.1,329.5,297.1,371.8,248,368"/>
				<path class="st0" d="M251.7,372.4C202.1,369,57,303.9,33.5,263.3C10,222.7,67.6,155.6,110.6,128.8c43-26.8,144.2-52.2,181-26.5
					c36.7,25.8,46,136.2,39.4,181.2C324.3,328.6,301.3,375.8,251.7,372.4"/>
				<path class="st0" d="M250.2,376.3c-49.3-4-193.5-72.7-216.3-113.3C11,222.3,70.4,159.4,113,132.4c42.7-27,140.9-57.2,177-31.4
					c36.1,25.8,46.2,140.1,39.6,186C322.9,332.8,299.5,380.3,250.2,376.3"/>
				<path class="st0" d="M252,377c-48.7-4.2-193.6-73.3-216.2-113.8C13.2,222.7,73.9,161.3,116.3,134
					c42.4-27.3,138.8-60.1,174.1-34.4c35.3,25.7,44.1,142.3,37.8,188.5C321.8,334.4,300.8,381.2,252,377"/>
				<path class="st0" d="M255.1,379.4C205.9,375,56.5,302.8,33.5,262c-23-40.8,40.3-101.1,83.6-127.6c43.3-26.5,140.9-57,176.2-31.4
					c35.3,25.6,42,139.1,35.6,185.2C322.6,334.2,304.4,383.7,255.1,379.4"/>
				<path class="st0" d="M252.8,382.4C203.5,378,56.4,305.7,33.7,264.3C11,222.9,73.6,161.2,116.6,134
					c43.1-27.3,140-59.4,175.4-33.2c35.5,26.1,43.8,143.2,37.3,190.1C322.8,337.8,302.1,386.8,252.8,382.4"/>
				<path class="st0" d="M253.6,380c-49.7-4.6-197.1-74.4-220.1-114.8c-23-40.4,39.2-100,82-127.4c42.8-27.4,139-63.1,175.1-37.2
					c36.1,25.8,47.6,145.7,41.4,192.3C325.8,339.4,303.4,384.6,253.6,380"/>
				<path class="st0" d="M252.5,379.5C202.3,376,53.2,309.7,30.2,269.1c-23-40.6,40.4-105.1,84.2-133
					c43.7-27.9,142.1-60.1,178.3-34.4c36.2,25.7,45.6,142.3,38.9,188.5C325,336.6,302.7,383,252.5,379.5"/>
				<path class="st0" d="M252.6,381.7c-51.1-3.5-201.2-71.5-224.5-112.2c-23.3-40.6,40.9-104.2,84.6-131.7
					c43.7-27.5,140.6-58.6,177.6-33.2c37,25.4,50.5,139.5,44.2,185.6C328.3,336.5,303.7,385.1,252.6,381.7"/>
				<path class="st0" d="M250.1,382.2C199.7,378,53.1,308.3,29.9,267.6c-23.1-40.7,37.4-103.2,81.3-129.8
					c43.9-26.6,145.3-55.4,182.2-29.5c36.9,25.9,46.4,139.3,39.2,185C325.4,338.9,300.6,386.5,250.1,382.2"/>
				<path class="st0" d="M249.5,386.8C198.6,383,53.9,312.7,30.9,272c-23-40.7,37.3-102.2,80.5-129.6
					C154.6,115,252.5,82.1,290,107.5c37.5,25.4,52.9,140.5,46.2,187C329.4,341.1,300.3,390.5,249.5,386.8"/>
				<path class="st0" d="M250.6,390.4C199.5,386,52.7,312.4,29.1,271c-23.5-41.4,36.3-101.7,80.2-129.2
					c43.9-27.4,145.3-61.3,183-35.4c37.7,25.9,50.2,143.7,43.2,191C328.6,344.8,301.7,394.9,250.6,390.4"/>
				<path class="st0" d="M251.3,389.4C199.9,384.3,53,311.2,29.4,270.2c-23.6-41,36.8-100.5,80.5-127.1
					c43.7-26.6,143.5-58.8,181.5-32.5c38,26.3,53.2,143.7,46.5,190.2C331.3,347.3,302.7,394.5,251.3,389.4"/>
				<path class="st0" d="M251.8,391c-50.3-4.7-195.4-78.6-219.3-119.9c-23.9-41.3,32.7-101.4,75.9-127.8
					c43.3-26.5,146.1-57.1,183.7-31.1c37.7,26,49,140.5,42.2,187C327.7,345.6,302.1,395.7,251.8,391"/>
				<path class="st0" d="M251.3,389c-49.9-5.1-195-75.2-218.9-116.6C8.5,231,64.6,167.2,108,140.8c43.4-26.4,147.4-54.1,184.7-27
					c37.3,27.1,46,143.5,39,189.4C324.8,349,301.2,394.2,251.3,389"/>
				<path class="st0" d="M251.1,391.2c-49.8-5.1-197.8-74.4-221.4-115.8c-23.6-41.3,36.5-105.3,79.9-132.3
					c43.5-27,144.5-56.7,180.9-29.5c36.5,27.2,44.5,146.2,37.9,192.5C321.9,352.3,300.9,396.3,251.1,391.2"/>
				<path class="st0" d="M251.2,393.7c-50.6-5.5-200.6-76.2-223.9-118.4c-23.3-42.2,39.9-107.5,84.1-134.7
					c44.2-27.2,144.8-56.1,181.3-28.2c36.5,27.9,44.9,148.8,38,195.7C323.7,355,301.8,399.2,251.2,393.7"/>
				<path class="st0" d="M248.7,392c-50.5-4.5-197.3-70.7-220.8-112.7c-23.5-42,35.9-111.2,79.9-139.3
					C151.9,112,255.1,83.3,292.2,111c37.2,27.7,46,148.5,38.7,195.3C323.7,353.1,299.2,396.5,248.7,392"/>
				<path class="st0" d="M247.6,395C197.8,390.4,53.3,320.6,30,277.9c-23.2-42.7,35-111.7,78.3-139c43.3-27.3,144.5-52.8,181.2-25
					c36.7,27.8,46.1,144.8,39.1,191.6C321.6,352.3,297.3,399.6,247.6,395"/>
				<path class="st0" d="M245.2,393.6c-49.3-4.4-191.7-70-214.9-112.6c-23.2-42.7,32-115.3,75.6-143.3c43.6-28,149.3-52.8,186-24.5
					c36.7,28.3,41.9,147.5,34.1,194.2C318.2,354.1,294.4,398,245.2,393.6"/>
				<path class="st0" d="M247.2,397c-48.6-4.3-192.4-69.2-216.3-112.4c-24-43.2,29.3-118.5,72.6-146.7
					c43.3-28.2,150.7-51.4,187.2-22.7c36.5,28.8,39.3,148.3,32.1,195.2C315.4,357.3,295.8,401.3,247.2,397"/>
				<path class="st0" d="M248.2,394.7C200,391.3,58.2,331.2,33.8,289c-24.4-42.2,25.7-118.3,68.1-147.7
					c42.4-29.4,149.3-56.6,186.2-28.6c36.8,28,41.6,149.6,34.9,196.5C316.3,356.3,296.4,398.1,248.2,394.7"/>
				<path class="st0" d="M250,396.9c-47.5-3.4-188.4-63.3-213.4-105.7c-25-42.3,22-119.2,63.4-148.3
					c41.5-29.1,148.3-54.5,185.3-26.5c37,28.1,42.4,148.2,36.6,194.9C316,358.2,297.5,400.3,250,396.9"/>
				<path class="st0" d="M246,399.3c-47.7-3.6-183.7-67.1-208.7-109.7s17.2-117.9,59-146.2c41.8-28.3,154-51.3,191.9-23.4
					C326,148,330.3,264.5,323.3,311C316.3,357.5,293.6,402.9,246,399.3"/>
				<path class="st0" d="M246,398.9c-46.8-3.4-182.6-66.5-207.2-109.1C14.2,247.1,57,171.5,98.5,143.1
					C140,114.7,251,91.4,287.7,119.3c36.8,27.9,38.5,144.4,31.6,191C312.3,356.9,292.7,402.3,246,398.9"/>
				<path class="st0" d="M243.7,400.4c-46.2-3.3-179.3-64.9-203.4-107.8c-24.1-42.9,17.5-121.2,59-149.6
					c41.5-28.4,153.7-49.2,190-20.9c36.4,28.3,35.7,144.2,28.1,190.5C309.9,359,289.9,403.8,243.7,400.4"/>
				<path class="st0" d="M241,401.3c-47.2-3.6-180.7-65.9-204.5-109C12.6,249.1,55.7,170.9,98,142.5C140.2,114,252.8,93,289.8,121.6
					c37,28.6,38.2,145.6,30,192.2C311.7,360.4,288.2,404.9,241,401.3"/>
				<path class="st0" d="M240.9,404.6c-47-2.9-179.2-65.9-202.7-109.5C14.6,251.4,57.5,172,99.5,142.9c42-29.1,154.1-50.9,191-22.6
					c36.8,28.2,38.3,144.7,30.1,192.1C312.3,359.7,288,407.4,240.9,404.6"/>
				<path class="st0" d="M237.8,404.9c-47.7-3.4-180.4-65.5-203.7-109.6c-23.3-44,21.3-125.3,63.7-154.7
					c42.5-29.4,153.9-51.1,191-21.9c37.1,29.2,39.9,149.4,31.4,197.1C311.7,363.6,285.5,408.3,237.8,404.9"/>
				<path class="st0" d="M236.8,406.9c-47.2-2.4-180.1-64.3-203.4-108C10,255.3,53.7,174.2,96.7,144.7c43-29.6,157.9-51.1,194.5-23
					c36.6,28.1,34.4,144.1,25.3,191.6C307.5,360.8,284,409.3,236.8,406.9"/>
				<path class="st0" d="M233.9,405.4c-47.2-3-179-65.4-201.4-108.7C10,253.4,56.5,174.2,99.2,145.6c42.8-28.5,153.6-48.3,189.7-20
					C325,153.8,325,268.4,315.8,315C306.6,361.6,281.1,408.5,233.9,405.4"/>
				<path class="st0" d="M235.5,406.8c-47.6-3.4-180.2-67.4-203.2-111C9.4,252.2,55.4,173.3,98,145.1c42.6-28.3,153.4-47.4,190-18.8
					c36.6,28.5,38.5,143.2,29.7,190C309,363,283,410.2,235.5,406.8"/>
				<path class="st0" d="M232.9,406.1c-47-2.9-175.4-63.5-197.7-107.5c-22.3-43.9,21.8-128,63.9-156c42.1-28,152.2-40.9,188.5-12.1
					c36.3,28.9,38.4,139.3,29.3,185.3C307.8,361.7,279.9,409,232.9,406.1"/>
				<path class="st0" d="M229.3,408.5c-47.1-3.1-173.4-66.8-195.5-110.7c-22-44,20.7-124.8,63.2-153.1
					c42.5-28.3,155.1-45.2,191.7-16.7c36.6,28.6,37.8,141.3,27.9,188.1C306.8,362.9,276.4,411.6,229.3,408.5"/>
				<path class="st0" d="M231.6,412c-46.8-2.8-175.1-66.1-197.7-110.4c-22.6-44.4,20.4-126.5,62.3-155.7
					c41.9-29.2,152.9-48.2,189.3-19.5c36.4,28.8,37.9,144.4,28.9,192C305.4,366,278.4,414.8,231.6,412"/>
				<path class="st0" d="M233.8,415.8C186.9,413,56.5,349.9,32.9,305C9.4,260.2,50,176.7,92.5,146.9C135,117,251,96.6,287.9,125.8
					C324.8,155,323.1,273.7,314,322C305,370.4,280.6,418.6,233.8,415.8"/>
				<path class="st0" d="M230.3,413.9C182.3,411.3,51.9,349.2,29,304.3C6,259.4,49.4,174.8,92.4,144.7
					c43-30.2,157.3-50.5,194.6-21.3c37.4,29.2,39,148,29.5,196.4C307.1,368.2,278.2,416.4,230.3,413.9"/>
				<path class="st0" d="M230.6,412c-47-2.8-175.2-66.2-198.9-110.1C7.9,258,45.9,178,88.2,148.4c42.3-29.5,159.5-52.2,197.1-23.8
					C323,153,323,270.8,313.9,318.7C304.7,366.6,277.7,414.8,230.6,412"/>
				<path class="st0" d="M227.9,409.6c-46.4-3-170.2-65.6-193.5-108.7C11.1,257.8,46.4,180.7,88,151.2
					c41.6-29.5,158.5-55.3,196-27.3c37.5,28,38.5,147.4,29.1,195C303.8,366.6,274.4,412.6,227.9,409.6"/>
				<path class="st0" d="M227.1,413.9c-46.4-2.9-167.7-67.8-191.4-111.6C12.1,258.5,43.6,181,84.9,150.9
					C126.1,120.9,245,93.8,283.2,122c38.2,28.2,40.1,149.3,30.8,197.9C304.6,368.6,273.5,416.8,227.1,413.9"/>
				<path class="st0" d="M229.8,417c-46.2-2.4-168.5-66.1-192.6-110.7c-24-44.6,7.8-126.2,48.3-156.6c40.4-30.4,156.2-54.4,194.4-26
					c38.1,28.5,42.7,147.9,34.4,196.7C305.9,369.4,276,419.4,229.8,417"/>
				<path class="st0" d="M229.8,417.3c-45-1.7-166.2-64.7-190.1-108.7c-23.8-44,7.5-124,47-155.1c39.5-31,152.7-58.6,189.9-31.1
					c37.2,27.5,41.1,147.1,33.3,196.2C302.1,367.8,274.8,419,229.8,417.3"/>
				<path class="st0" d="M232.2,419.5c-45.8-1.3-171.9-63.6-196-107.6c-24.1-44,11-125.4,51.4-156.3c40.4-30.9,153.6-56.3,190.9-29
					c37.2,27.3,40.3,144.2,32.6,193C303.4,368.5,278,420.8,232.2,419.5"/>
				<path class="st0" d="M231.3,423.5C185.6,422.7,60.6,358.8,36.8,314c-23.8-44.8,11.3-128.5,52-159.4
					c40.6-30.9,154.9-53.5,191.9-26.1c37,27.4,38.3,141.3,30.1,190.5C302.5,368.1,277,424.4,231.3,423.5"/>
				<path class="st0" d="M233.3,424.3C187,423.8,59.6,358.2,35.9,313.1C12.2,268,50.3,184.8,91,153.9
					c40.7-30.9,151.8-53.3,188.9-26.2c37.1,27.1,41.3,139.3,33.5,188.7C305.6,365.9,279.5,424.9,233.3,424.3"/>
				<path class="st0" d="M230.8,425.3C184.3,424.9,57.4,358,33.6,313.1c-23.7-45,14.2-126.3,54.8-157.7
					C128.9,124,239.5,98,276.9,124.6c37.4,26.6,43.4,140.3,35.7,190.4C304.9,365.2,277.3,425.6,230.8,425.3"/>
				<path class="st0" d="M228.7,428.4C182.4,428.2,58.5,359.1,35.3,314C12,268.9,48.4,189.1,89,157.8c40.5-31.4,152.1-58.3,189.5-32
					c37.4,26.3,43.3,139.3,35,189.8C305.2,366,275.1,428.7,228.7,428.4"/>
				<path class="st0" d="M230.5,426.7c-46.8-0.9-171-69.3-195.3-114.3c-24.3-45,8.7-124,49.6-155.5c41-31.5,157.8-60.1,196.3-33.3
					c38.5,26.8,43.1,143.6,34.7,194.2C307.4,368.3,277.3,427.6,230.5,426.7"/>
				<path class="st0" d="M229,428.4c-46.8-0.5-171.3-71.5-195-116.3c-23.7-44.7,11.5-121,53.1-152.2
					c41.5-31.2,158.2-60.7,196.1-34.9c37.9,25.8,40.4,139.4,31.4,190C305.6,365.6,275.8,428.9,229,428.4"/>
				<path class="st0" d="M227.1,426.7c-46.6,0.4-170.6-67.4-193.7-112.4c-23.1-45,13.6-126.8,55-157.7
					c41.4-30.9,155.9-53.9,193.4-28c37.4,25.9,40.4,133.9,31.3,183.6C304,361.9,273.8,426.4,227.1,426.7"/>
				<path class="st0" d="M224.3,426.7C178,426.9,58.1,358,35.7,312.4c-22.4-45.6,12.8-129.2,54.2-159.3c41.5-30,157.2-47.3,194.5-21
					c37.2,26.3,39,129.8,29,178.9C303.4,360.2,270.6,426.5,224.3,426.7"/>
				<path class="st0" d="M222.7,424.7c-47,0.4-167.7-68.5-189.8-113.2C10.7,266.8,48.4,186,90,156.6
					c41.6-29.3,154.7-46.5,192.2-21.1c37.5,25.4,42.8,125.6,32.9,173.8C305.1,357.5,269.7,424.4,222.7,424.7"/>
				<path class="st0" d="M220.3,426.9c-48.1,0.6-169.4-71.4-190.9-117C7.7,264.4,49,182,90.7,153.5c41.7-28.6,151.2-40.4,189.1-14.9
					c37.8,25.5,47.9,119.9,38,167.9C307.8,354.6,268.3,426.3,220.3,426.9"/>
				<path class="st0" d="M219.6,423.6c-47.7,0.9-168.4-70.7-190.5-115.2C7,263.8,44.9,184.7,87.1,156.2
					c42.2-28.5,156.9-43.5,194.9-19.1c38.1,24.5,43.8,118.1,33.4,165.9C305,350.7,267.3,422.7,219.6,423.6"/>
				<path class="st0" d="M216.2,420.2c-48.1,1.1-169.3-66.9-191.4-111.4C2.7,264.3,41.2,182.3,83.6,153.2
					c42.4-29,157.3-43.5,195.5-18.7c38.3,24.8,44.5,119.9,34,167.5C302.6,349.6,264.3,419,216.2,420.2"/>
				<path class="st0" d="M212.5,421.9C164.9,422,47.6,349.8,26,305.1C4.3,260.3,40.8,181.4,82.8,153.4c42-28,157-41.6,195.2-16.4
					c38.2,25.2,44.8,120.1,33.9,167.6C300.9,352.2,260.2,421.8,212.5,421.9"/>
				<path class="st0" d="M213.2,422.1C165.9,421.3,48.6,347.6,27,303.3C5.4,258.9,42.3,183.5,83.7,156.1
					c41.4-27.4,154-42.7,192-17.5c37.9,25.3,46,122,35.6,169.2C300.9,355.1,260.6,422.8,213.2,422.1"/>
				<path class="st0" d="M209.1,422.2c-47.8-1-163.8-74.3-184.8-118.9C3.2,258.6,41,182.4,82.7,154.5c41.7-28,153.8-44.7,191.9-18.9
					c38.1,25.8,47.6,126,36.7,173.8C300.3,357.1,257,423.2,209.1,422.2"/>
				<path class="st0" d="M205.6,419.2C158.5,417.9,45.9,347.7,25.2,304C4.6,260.3,40.6,185,81.8,157c41.2-28,152.9-47,190.6-21.2
					c37.7,25.8,46.6,129,35.5,176.2C296.7,359.3,252.7,420.6,205.6,419.2"/>
				<path class="st0" d="M206,417c-47.8-0.8-161-69.5-182.2-113.4c-21.2-43.8,13.8-121.3,55-149.5c41.2-28.3,153.7-45.8,192.3-20
					c38.6,25.8,50.3,127.4,39.4,174.5C299.7,355.8,253.8,417.9,206,417"/>
				<path class="st0" d="M205.9,418.7c-48.2-1-163.6-73.3-184.3-116.8C0.8,258.3,39.8,184.8,81.6,157.2
					c41.8-27.6,152.5-46,190.7-20.9c38.2,25.1,49.5,124.4,38.4,171.5C299.6,354.8,254.1,419.7,205.9,418.7"/>
				<path class="st0" d="M207,421.5C158,421,38.3,347.7,17.4,304.2C-3.5,260.6,39,187.6,81.7,160.1c42.8-27.6,154-45.8,192.3-21.3
					c38.3,24.5,48.7,121.2,37.5,168.3C300.4,354.2,256.1,422,207,421.5"/>
				<path class="st0" d="M205.3,424.2C156.8,423.9,40.7,350,19.8,305.6c-20.8-44.4,18-120.5,60.5-148.1
					c42.5-27.6,156-42.3,194.4-17.4c38.4,25,47.5,119.9,35.9,167.2C299.1,354.7,253.7,424.4,205.3,424.2"/>
				<path class="st0" d="M207.9,422.7c-48.5,0-168.7-71.7-189.6-115.7c-20.8-44,22.3-120.7,64.5-148.6
					c42.2-27.9,151.1-43.6,188.8-18.8c37.7,24.8,48.2,120.5,37.6,167.7C298.6,354.5,256.4,422.8,207.9,422.7"/>
				<path class="st0" d="M210,421.7c-47.8,0.5-169.4-68.5-190.5-112.4c-21.1-43.9,22.1-123.2,64-151.2
					c41.9-28,150.5-41.5,187.6-16.9c37.1,24.7,45.1,118.2,35,165C295.8,352.9,257.8,421.2,210,421.7"/>
				<path class="st0" d="M206.3,417.3c-47.5,0-167.1-65.6-187.2-109.2C-1.1,264.6,43.8,183.6,85.4,156
					c41.6-27.6,147.1-38.7,183.5-13.3c36.4,25.4,45.4,119.8,34.9,165.6C293.4,354,253.7,417.3,206.3,417.3"/>
				<path class="st0" d="M207.8,414.6c-47.7,0.2-171.1-61-191.2-104.4c-20.1-43.4,28.2-127.5,70.6-155.9
					c42.4-28.4,147.9-40.4,183.9-14.5c36,25.8,42.5,123.7,31.9,169.5C292.5,355.1,255.6,414.5,207.8,414.6"/>
				<path class="st0" d="M208.9,411c-47,0.4-170.7-59.4-191.5-102.4c-20.8-43,25-127.5,66.6-155.6c41.7-28.1,147.4-38.8,183.3-13.2
					c35.9,25.5,41.9,121.3,32.2,166.5C289.7,351.6,255.9,410.7,208.9,411"/>
				<path class="st0" d="M209.3,411.6c-46.6-0.3-169.8-62.5-190.9-106C-2.7,262.1,40.8,178,82.8,150.7c42-27.3,151.6-34.9,187.4-8.8
					c35.8,26.1,37.7,120.3,27.5,165.3C287.6,352.1,255.9,411.8,209.3,411.6"/>
				<path class="st0" d="M211.1,412.3c-47.1,0.1-171.3-64-192.7-107.3c-21.4-43.3,22.2-125,64.4-152.5
					c42.3-27.5,152.8-37.9,189.1-12.6c36.3,25.4,39.1,119.3,29,164.7C290.7,350.1,258.1,412.3,211.1,412.3"/>
				<path class="st0" d="M211.3,412.8c-46.6,0.8-171.4-65.1-193.2-108.3c-21.8-43.2,20.4-123.4,62.4-150.6
					c42.1-27.2,153.8-37.2,190-12.9c36.2,24.3,36.8,113.5,27,158.8C287.7,345,257.9,412,211.3,412.8"/>
				<path class="st0" d="M209.1,414.5c-47.4,1.6-172-65.1-193.5-109.3C-5.9,261,37.2,176.6,80,149.4c42.8-27.1,155.6-31.5,192.3-7.1
					c36.7,24.4,38.4,108.2,27.9,153.5C289.6,341.2,256.5,412.9,209.1,414.5"/>
				<path class="st0" d="M211,411.3C163.8,412.8,38,349.6,16.6,306.2c-21.4-43.4,22.9-127.6,65.9-155.4c43-27.8,156-36,192.2-11.5
					c36.2,24.4,35.5,112.6,24.9,158C289,342.6,258.1,409.8,211,411.3"/>
				<path class="st0" d="M209.3,412.6c-47.5,0.9-174.5-65.3-196.2-109.8c-21.6-44.5,23.2-129.3,66.3-157.3
					c43.2-28,156.2-35.8,192.6-10.5c36.4,25.3,36.2,116,25.8,162.3C287.3,343.7,256.7,411.7,209.3,412.6"/>
				<path class="st0" d="M206.4,408.6c-47,1.8-172.1-62.1-193.8-105.9c-21.6-43.8,21.1-129.1,63.9-157.2
					c42.8-28,156.4-35.6,192.7-11.1c36.3,24.4,35.7,112.1,25.2,157.8C283.9,337.9,253.4,406.8,206.4,408.6"/>
				<path class="st0" d="M207.3,409.7C160.1,411.1,36.5,343.5,14.1,299c-22.4-44.5,15.9-128.4,59-156.3c43-27.9,162-35.6,199.3-11
					c37.3,24.6,35.4,112.4,24.5,158.7C286,336.8,254.4,408.2,207.3,409.7"/>
				<path class="st0" d="M210.3,410.4c-47.7,0.8-175.3-69.7-198-114.5C-10.2,251.1,31.7,169,74.7,141.4c43-27.6,158.3-35.9,195.6-11
					c37.3,24.9,38.2,113.8,28.2,160.4C288.5,337.5,258,409.6,210.3,410.4"/>
				<path class="st0" d="M208.5,408C161.2,409.1,37,336.6,14.6,291.7c-22.4-44.8,17-125.5,59.7-152.7c42.7-27.2,159-34.8,196.5-10.4
					c37.4,24.4,38.5,110.2,28.1,156.8C288.5,332,255.9,407,208.5,408"/>
				<path class="st0" d="M205,404c-47.3,0.5-167.5-72.8-189-116.9c-21.5-44,17.3-120.8,60.1-147.3c42.8-26.5,159.6-35.6,196.8-11.5
					c37.2,24.1,37.8,109.9,26.5,155.9C288.2,330.2,252.3,403.5,205,404"/>
				<path class="st0" d="M202.7,399.3c-47.1,1-162-68.5-183.5-111.8c-21.5-43.3,12.3-121.3,54.7-148
					c42.4-26.7,161.7-35.9,199.6-12.2c38,23.7,40,108.8,28.2,154.2C290,326.8,249.8,398.3,202.7,399.3"/>
				<path class="st0" d="M203.6,393.9c-46.5,0-162.6-69.1-183.8-112.2C-1.4,238.5,33.7,161.7,76.2,135
					c42.5-26.7,161.5-37.8,198.5-13.4c37.1,24.4,35.9,114.6,24,160C286.9,327,250.1,393.9,203.6,393.9"/>
				<path class="st0" d="M206.6,390.6C160.4,391,42.1,321.6,20.4,279C-1.3,236.3,34,161.3,76.3,134.7c42.3-26.6,161-39,197.9-15.3
					c36.9,23.7,34.5,112.2,23.3,157.4C286.1,322.1,252.7,390.3,206.6,390.6"/>
				<path class="st0" d="M203.4,388.4C157.5,388,42.3,316,21,273.1c-21.3-43,12.6-116.1,54.7-142.5c42.1-26.3,160.8-39.8,197.6-15.6
					c36.8,24.2,35,115.2,23.4,160.7C285,321.3,249.3,388.9,203.4,388.4"/>
				<path class="st0" d="M202.4,388.9c-46.1-1.2-163.1-78-184.1-121.5c-21-43.5,16-113.1,58.1-139.5c42-26.3,157.7-43,194.1-18.6
					c36.4,24.5,35.6,118.7,24.3,165.3C283.4,321.2,248.5,390.1,202.4,388.9"/>
				<path class="st0" d="M203.1,389.4c-46-1.3-165.4-82.6-186.4-126.8c-21-44.3,18.1-113.1,60.4-138.8
					c42.3-25.7,157.3-40,193.3-15.5c36,24.4,33.9,115.3,22.7,162.1C281.8,317.2,249.2,390.7,203.1,389.4"/>
				<path class="st0" d="M204,386.7c-46.4-1.1-165.3-85.1-187-129.8c-21.7-44.7,14.7-113.3,57-138.4
					c42.2-25.1,159.5-36.3,196.4-12.1c36.9,24.2,36.2,110.7,25.1,157.4C284.4,310.5,250.4,387.8,204,386.7"/>
				<path class="st0" d="M202,380.6c-47.4-0.8-166.6-82.8-187.8-127.2C-7,209,31.7,139,74.8,114.1c43.1-24.9,160.5-33.9,197.8-9.9
					c37.3,24,37.8,107.7,26,153.7C286.9,304.1,249.4,381.4,202,380.6"/>
				<path class="st0" d="M203.7,375c-47.1-0.5-166.1-81.7-187.5-125.5C-5.2,205.6,32.5,136.3,75.4,112c42.9-24.4,161-32,198.2-8.6
					c37.2,23.4,36.7,103.8,25,149C287,297.7,250.8,375.5,203.7,375"/>
				<path class="st0" d="M205.6,370.1c-46.8-0.6-166.9-80-188.2-123.3c-21.3-43.3,17.2-112.4,60.2-136.3
					c43-23.9,160.9-30.5,197.6-7.1c36.7,23.3,34.4,102.7,22.8,147.2C286.4,295.1,252.3,370.8,205.6,370.1"/>
				<path class="st0" d="M206.6,367.1C160.7,367.1,42,287.6,20,244.7c-22-42.9,12.7-111.2,54.8-134.9
					c42.1-23.7,160.9-29.6,197.7-7.1c36.8,22.5,34.2,98.3,23.2,142.4C284.7,289.1,252.6,367.2,206.6,367.1"/>
				<path class="st0" d="M207.9,366.7c-46.4-0.2-165.7-82.1-187.5-125.5c-21.8-43.4,14-111.2,56.5-134.8
					c42.5-23.6,161.5-29.3,198.6-6.6c37,22.6,34.8,98.1,23.5,142.5C287.7,286.8,254.3,366.9,207.9,366.7"/>
				<path class="st0" d="M204.3,365.1c-46.2-0.2-159.4-85.8-181.2-130c-21.8-44.2,8.3-112.5,50.4-135c42.1-22.5,164.3-22.9,202-0.2
					c37.8,22.7,36.4,92.3,24.5,136.5C288.1,280.6,250.4,365.4,204.3,365.1"/>
				<path class="st0" d="M204.8,360.5c-45.9,0-158.7-81.7-180.4-125.3C2.7,191.7,32.6,122.1,74.8,99.1c42.3-23,165.6-24.7,203.2-2
					c37.5,22.7,34.3,94.2,22.1,138.1C287.9,279.1,250.7,360.5,204.8,360.5"/>
				<path class="st0" d="M207.9,360.8C163,361.6,49,279.4,27.2,235.4c-21.9-44,8.1-114.8,49.6-138.8c41.4-24,162.5-27.5,199.1-5.2
					c36.6,22.3,31.9,94.2,20.6,139.1C285.1,275.4,252.8,360,207.9,360.8"/>
				<path class="st0" d="M206.2,358.3C161,359.2,48.4,275,26.6,230.7C4.9,186.4,34.3,116.1,75.6,92.3
					c41.3-23.8,161.8-26.4,198.8-4.2c37,22.2,34.8,92.2,23.4,137.2C286.5,270.4,251.4,357.4,206.2,358.3"/>
				<path class="st0" d="M207.4,356.9C162,358,50.6,271.2,28.3,226.2c-22.3-44.9,4-115.3,45.5-139c41.4-23.7,165.4-25,203.2-3
					c37.8,22,35,89.5,23.4,135C288.8,264.7,252.7,355.7,207.4,356.9"/>
				<path class="st0" d="M203.8,352.5c-45.1,1.1-151.9-84.7-173.5-129c-21.6-44.4,2.5-113.7,44-137.1c41.5-23.4,167.1-25,204.9-3.3
					c37.8,21.7,34.6,88.6,22,133.5S249,351.4,203.8,352.5"/>
				<path class="st0" d="M202.3,348.3c-44.5,1-147.4-82.6-168.8-126.6c-21.4-44-1-113.9,40.3-137.5c41.3-23.6,169.6-26.1,207.4-4.2
					c37.8,22,32.5,91.2,19.3,136C287.4,260.7,246.8,347.4,202.3,348.3"/>
				<path class="st0" d="M205.3,342.3c-44.1,0.3-146.9-82.5-169-126.4c-22.1-43.9-5-113.8,36.2-137.2
					c41.3-23.4,173.3-25.8,211.4-3.3c38.1,22.5,30.3,93.9,17.2,138.4C288,258.3,249.5,342,205.3,342.3"/>
				<path class="st0" d="M207.4,336.7c-44.5,0.5-149.5-82.1-171.7-125.9C13.4,167,32.3,97,73.8,74c41.6-23,173-23.3,211.1-0.9
					c38.1,22.4,30.4,91.1,17.5,135C289.5,252,251.8,336.2,207.4,336.7"/>
				<path class="st0" d="M205.2,330.5c-44.9,0.1-151.3-80.3-172.8-123.3C10.8,164.2,34.1,94.9,76,72.4c41.9-22.5,170-22.4,207.6,0
					c37.7,22.4,31.3,91.4,18.2,134.4C288.8,249.9,250.1,330.4,205.2,330.5"/>
				<path class="st0" d="M203.9,325.9C159.6,326.3,54.6,247.7,33,205C11.4,162.3,32.2,92.3,74.2,69.4c42-22.8,173.4-23.5,210.8-1.3
					c37.5,22.2,27.4,91.5,13.9,134.4C285.4,245.5,248.2,325.5,203.9,325.9"/>
				<path class="st0" d="M200.7,325.1c-44.2,0.8-145.8-81-166.9-123.9C12.9,158.4,32.3,91,74.7,68c42.4-22.9,176.2-25.8,213.5-4.4
					c37.3,21.4,25.2,89.3,10.6,132.8C284.2,240,244.9,324.3,200.7,325.1"/>
				<path class="st0" d="M203.2,322.2C158.9,323.3,52.5,244.7,30.5,202C8.4,159.3,28.3,90,71,66.1c42.7-23.9,178.3-29.1,215.8-7.5
					c37.6,21.5,23.5,92.8,9.6,136.8C282.5,239.3,247.6,321.1,203.2,322.2"/>
				<path class="st0" d="M204,319.8c-44.4,1-150.3-77.1-172-120.3c-21.7-43.2-1-115.4,42-138.8c42.9-23.4,178.2-23.7,215.6-1.6
					c37.4,22.1,23.3,91,9,134.4C284.4,237,248.5,318.8,204,319.8"/>
				<path class="st0" d="M203.7,320.7c-45.1,1-151.5-77.1-173.3-120.8C8.5,156.3,29.3,82,72.6,58.7c43.3-23.3,179.3-21.4,217.4,1.2
					c38.1,22.6,25.6,90.8,11.2,134.3C286.8,237.6,248.8,319.7,203.7,320.7"/>
				<path class="st0" d="M204.9,317.7C160,319.5,54.4,242.8,32.1,198.6c-22.2-44.2-3-122,39.5-145.9c42.5-23.9,177.2-20,215.6,2.6
					c38.4,22.6,28.3,89.1,14.6,132.8C288.1,231.9,249.9,316,204.9,317.7"/>
				<path class="st0" d="M204.7,318.2c-45.3,2.6-153-75.3-175.5-120.1C6.7,153.3,27,73.9,69.5,49.3c42.5-24.6,176.5-20.8,215,1.4
					c38.5,22.2,29.5,86.9,16.2,131.5C287.5,226.8,250,315.6,204.7,318.2"/>
				<path class="st0" d="M205.4,315.6C160.5,318.9,51,242,28.3,197.4c-22.7-44.7-1.6-125.2,41-149.8c42.6-24.6,176.3-19.4,214.3,2.2
					c38.1,21.6,27.2,83.2,14.1,127.5C284.7,221.5,250.3,312.2,205.4,315.6"/>
				<path class="st0" d="M207,311c-44.9,3.8-152.9-70.7-175.4-115C9.1,151.6,29.8,70.2,71.9,44.9c42.2-25.3,174.5-22.1,212.7-0.7
					C322.8,65.5,314,128.5,301,173C288.1,217.4,251.9,307.2,207,311"/>
				<path class="st0" d="M207.8,307.4c-45,4.7-156.4-68.3-178.4-112C7.3,151.5,32.9,69.9,75.3,44.7c42.3-25.2,170.9-20.8,208.2-0.4
					c37.3,20.4,28.3,79.2,15.7,123C286.5,211.2,252.7,302.7,207.8,307.4"/>
				<path class="st0" d="M210.5,304.9c-44.1,4.6-155.8-65.8-178.5-109c-22.7-43.2,0-124.3,42-150.4c42.1-26.1,173.2-26.6,210.3-6.1
					c37.1,20.5,24.7,84.7,12.4,129C284.4,212.6,254.6,300.3,210.5,304.9"/>
				<path class="st0" d="M211.5,302c-44.3,4.9-157.2-62.7-180.3-105.3C8.1,154,30.6,73,73.1,46.1C115.5,19.2,248.5,15,285.9,35.2
					c37.4,20.2,23.8,87.7,11.4,132.1C284.9,211.8,255.8,297.1,211.5,302"/>
			</g>
		</g>
	</g>
	<g>
		<polygon class="st1" points="668.6,181.1 621.4,138.7 568.4,157.3 522,138.6 480.9,148.8 429.1,142.7 387.4,180.8 387.5,349.4 
			423.9,349.4 488.7,316.5 493.3,349.4 526.9,349.4 587.2,295.2 587.2,349.4 630.3,349.4 668.5,309.4 		"/>
		<polygon class="st1" points="852.3,74.7 811.9,74.5 776.1,112.3 690.1,349.4 723.8,349.4 761.7,315.1 852.3,74.7 852.3,74.7 		"/>
		<polygon class="st1" points="1021.7,268 982.9,212.3 1009.4,175.6 936.5,138.8 888.5,155.6 833.5,235.1 853.4,278 829.1,298.6 
			839,331.3 907.1,357.9 963.8,346.2 1021.7,268.4 1021.7,268.7 1021.7,268 		"/>
	</g>
</g>
</svg>
